<?xml version="1.0" encoding="UTF-8"?>
<svg id="Livello_1" data-name="Livello 1" xmlns="http://www.w3.org/2000/svg" xmlns:xlink="http://www.w3.org/1999/xlink" viewBox="0 0 6.79 6.05">
  <defs>
    <style>
      .cls-1 {
        fill: url(#Sfumatura_senza_nome_24);
      }

      .cls-1, .cls-2 {
        stroke-width: 0px;
      }

      .cls-3 {
        fill: #010101;
        font-family: Moderna, moderna;
        font-size: 1px;
      }

      .cls-2 {
        fill: url(#Sfumatura_senza_nome_24-2);
      }
    </style>
    <linearGradient id="Sfumatura_senza_nome_24" data-name="Sfumatura senza nome 24" x1="0" y1="3.44" x2="5.07" y2="3.44" gradientUnits="userSpaceOnUse">
      <stop offset=".47" stop-color="#4fb162"/>
      <stop offset="1" stop-color="#09a2aa"/>
    </linearGradient>
    <linearGradient id="Sfumatura_senza_nome_24-2" data-name="Sfumatura senza nome 24" x1="1.16" y1="2.19" x2="6.79" y2="2.19" xlink:href="#Sfumatura_senza_nome_24"/>
  </defs>
  <path class="cls-1" d="M2.77.85c-.19.11-.37.19-.53.3-.31.21-.59.47-.79.79-.14.23-.28.45-.37.7-.2.51-.25,1.03-.04,1.55.2.51.57.85,1.09,1.04.65.23,1.2.03,1.68-.41.06-.06.05-.1-.02-.14-.12-.05-.24-.11-.37-.15-.31-.09-.62-.18-.91-.26.33-.07.69-.08,1.05-.02.21.03.42.06.63.09.28.03.56.03.82-.09.01,0,.03,0,.05-.01,0,.04,0,.07,0,.1-.19.52-.5.94-.96,1.26-.23.16-.48.29-.75.36-.38.1-.77.13-1.16.06-.62-.1-1.13-.41-1.55-.85-.24-.26-.4-.57-.51-.9C-.02,3.83-.03,3.39.05,2.96c.06-.3.18-.59.34-.85.19-.31.42-.58.71-.79.27-.2.57-.36.91-.41.21-.03.41-.05.62-.07.04,0,.08,0,.13,0Z"/>
  <path class="cls-2" d="M6.44.26c-.46.27-.98.37-1.51.37-.53,0-1.05.04-1.57.16-.27.06-.53.17-.77.31-.37.22-.69.51-.94.87-.22.33-.38.68-.46,1.07-.06.3-.05.61.08.91.07.17.17.32.29.44-.05-.07-.1-.15-.13-.23-.05-.17-.07-.35-.05-.53-.02-.13,0-.26.02-.38,0,0,0,0,0,0,0,0,0,0,0-.01.05-.3.17-.58.34-.83.35-.51.81-.89,1.42-1.06.43-.13.86-.14,1.29-.06.03,0,.06.03.09.04,0,.01,0,.02,0,.03-.99.06-1.86.37-2.49,1.17.02,0,.03,0,.04,0,.18-.16.39-.23.62-.24.42-.02.84-.03,1.26-.03.34,0,.68.05,1.01-.02.35-.07.68-.2.96-.42.26-.2.43-.48.54-.77.11-.28.19-.56.27-.85.01-.05,0-.11,0-.17-.12.09-.22.19-.34.26Z"/>
  <text class="cls-3" transform="translate(2.48 4.09) scale(1.07 1)"><tspan x="0" y="0">TECH</tspan></text>
  <text class="cls-3" transform="translate(2.23 3.22)"><tspan x="0" y="0">GREEN</tspan></text>
</svg>